<?xml version="1.0" standalone="no"?>
<!DOCTYPE svg PUBLIC "-//W3C//DTD SVG 20010904//EN"
 "http://www.w3.org/TR/2001/REC-SVG-20010904/DTD/svg10.dtd">
<svg version="1.0" xmlns="http://www.w3.org/2000/svg"
 width="300.000000pt" height="300.000000pt" viewBox="0 0 300.000000 300.000000"
 preserveAspectRatio="xMidYMid meet">
<metadata>
Created by potrace 1.11, written by Peter Selinger 2001-2013
</metadata>
<g transform="translate(0.000000,300.000000) scale(0.100000,-0.100000)"
fill="#000000" stroke="none">
<path d="M1003 2922 c-26 -3 -33 -8 -34 -25 0 -12 -1 -51 -2 -87 l-2 -65 -175
-1 -175 -1 -2 -69 c0 -38 -1 -78 -2 -89 -1 -19 -7 -21 -88 -20 l-88 0 0 -87 1
-88 -41 -1 c-22 0 -61 -1 -87 -1 -56 0 -50 25 -50 -209 l-1 -146 -66 -1 c-36
0 -77 -1 -91 -1 l-25 -1 2 -577 c1 -318 2 -597 3 -620 l0 -43 88 0 89 0 -1
-81 c-1 -81 3 -102 20 -98 5 1 43 1 84 0 l75 -1 -1 -167 c0 -93 1 -172 3 -178
2 -6 38 -9 88 -8 l85 2 1 -27 c1 -15 1 -55 0 -89 l-2 -63 223 0 c200 0 1085 0
1426 0 l133 0 -2 63 c-2 125 -10 114 81 114 45 0 84 4 88 8 4 3 8 79 8 168 1
89 2 167 3 172 1 6 34 9 86 7 97 -3 87 -15 87 111 l0 67 89 0 89 0 0 98 c2
424 0 1136 -3 1138 -2 2 -42 5 -88 6 l-84 3 0 178 0 177 -55 -1 c-30 -1 -71
-1 -90 0 l-36 1 1 80 c1 43 -1 83 -4 87 -3 5 -41 9 -83 9 -43 0 -81 3 -84 7
-4 4 -7 43 -8 88 l-1 82 -175 1 -175 1 -1 82 c0 45 -3 85 -6 88 -6 6 -968 12
-1025 7z"/>
</g>
</svg>
